<?xml version="1.0" standalone="no"?>
<!DOCTYPE svg PUBLIC "-//W3C//DTD SVG 20010904//EN"
 "http://www.w3.org/TR/2001/REC-SVG-20010904/DTD/svg10.dtd">
<svg version="1.0" xmlns="http://www.w3.org/2000/svg"
 width="630.000000pt" height="630.000000pt" viewBox="0 0 630.000000 630.000000"
 preserveAspectRatio="xMidYMid meet">
<metadata>
Created by potrace 1.11, written by Peter Selinger 2001-2013
</metadata>
<g transform="translate(0.000000,630.000000) scale(0.100000,-0.100000)"
fill="#000000" stroke="none">
<path d="M4030 5699 c-42 -17 -80 -62 -92 -106 -10 -42 -11 -43 -52 -43 -77 0
-136 -62 -136 -143 0 -33 -2 -36 -38 -42 -49 -8 -96 -36 -118 -70 -10 -15 -20
-56 -23 -93 -6 -62 -8 -66 -35 -73 -149 -40 -194 -249 -85 -399 27 -37 29 -46
20 -67 -18 -39 -13 -122 10 -170 26 -53 81 -100 135 -115 36 -10 42 -16 58
-60 19 -55 73 -114 122 -134 43 -18 108 -18 143 0 24 13 34 13 76 0 125 -37
244 6 296 107 20 40 27 42 88 23 8 -3 39 0 68 6 64 14 118 56 144 115 20 43
25 130 10 181 -8 30 -7 32 39 51 71 30 105 86 105 172 0 51 -6 78 -27 120
l-26 53 19 42 c25 55 25 150 -1 218 -26 69 -89 142 -155 179 -34 19 -57 40
-65 59 -21 50 -102 117 -164 135 -31 9 -65 13 -77 10 -14 -5 -38 2 -70 19 -54
30 -131 41 -169 25z m124 -33 c18 -7 49 -28 68 -45 22 -19 39 -27 43 -21 3 5
3 15 0 20 -11 18 49 10 101 -14 82 -38 154 -144 154 -228 0 -10 5 -18 10 -18
6 0 10 18 10 41 l0 40 31 -18 c101 -59 171 -205 149 -310 -17 -76 -24 -82 -57
-51 -39 38 -110 68 -160 68 -32 0 -43 -4 -43 -15 0 -11 11 -15 42 -15 154 0
286 -206 218 -340 -23 -44 -51 -67 -96 -76 -25 -5 -32 -2 -42 20 -6 14 -16 26
-22 26 -15 0 -12 -28 6 -56 27 -40 43 -126 33 -175 -4 -24 -8 -47 -9 -51 -1
-18 -59 -73 -95 -89 -60 -28 -108 -22 -217 26 -13 5 -18 3 -18 -8 0 -9 9 -19
20 -22 24 -8 25 -17 6 -53 -33 -63 -104 -102 -184 -102 -70 0 -114 17 -107 41
9 27 -13 24 -37 -6 -52 -66 -174 -42 -233 46 -32 49 -42 89 -22 89 20 0 68 40
62 51 -4 5 -19 2 -35 -6 -43 -22 -97 -19 -146 10 -71 42 -118 146 -95 208 9
23 15 26 36 21 35 -9 32 2 -16 53 -78 84 -110 205 -78 290 26 69 95 113 180
113 36 0 49 4 47 13 -3 6 -16 13 -31 15 -67 8 -29 155 48 188 49 20 80 18 98
-8 20 -31 32 -16 18 23 -15 44 -14 94 3 127 32 62 139 77 148 22 6 -42 23 -18
20 29 -8 121 85 192 192 147z"/>
<path d="M3926 5338 c-59 -59 -71 -174 -25 -232 27 -34 54 -33 109 4 25 16 55
30 67 30 28 0 93 -61 93 -87 0 -12 -22 -39 -54 -67 -106 -91 -149 -235 -90
-305 l26 -31 -26 -21 c-49 -39 -43 -146 11 -188 31 -25 89 -27 121 -5 56 39
69 132 27 182 -27 33 -31 48 -13 54 6 2 14 32 18 66 7 56 13 68 74 144 117
147 141 226 95 323 -40 85 -111 125 -260 150 -128 21 -136 20 -173 -17z m202
-34 c102 -21 150 -43 189 -88 39 -44 47 -71 41 -137 -4 -35 -14 -63 -36 -92
-140 -189 -143 -194 -147 -247 -6 -77 -53 -103 -109 -59 -22 18 -26 28 -26 75
0 72 25 120 94 180 72 61 84 91 60 141 -23 46 -76 83 -118 83 -19 0 -47 -12
-70 -30 -47 -36 -60 -37 -80 -8 -30 43 -11 152 32 184 23 18 77 17 170 -2z
m21 -699 c54 -27 61 -108 13 -145 -57 -45 -132 -7 -132 69 0 32 6 44 31 65 35
30 49 32 88 11z"/>
<path d="M3164 4690 c-39 -16 -74 -68 -74 -112 0 -82 62 -135 147 -125 118 13
159 160 64 224 -35 24 -96 30 -137 13z m122 -38 c53 -42 54 -103 2 -147 -56
-48 -157 -19 -170 49 -6 32 14 79 43 100 31 21 98 20 125 -2z"/>
<path d="M2859 4531 c-35 -35 -38 -77 -9 -114 54 -68 170 -25 170 63 0 36 -53
80 -95 80 -27 0 -44 -8 -66 -29z m113 -18 c37 -34 5 -103 -49 -103 -30 0 -63
34 -63 64 0 48 74 74 112 39z"/>
<path d="M2704 4335 c-15 -23 -15 -27 0 -50 10 -15 26 -25 41 -25 15 0 31 10
41 25 15 23 15 27 0 50 -10 15 -26 25 -41 25 -15 0 -31 -10 -41 -25z m64 -22
c5 -17 -26 -29 -40 -15 -6 6 -7 15 -3 22 9 14 37 9 43 -7z"/>
<path d="M2354 4150 c-122 -18 -214 -70 -319 -179 -27 -29 -66 -69 -85 -89
-103 -107 -192 -269 -259 -469 -46 -137 -58 -201 -60 -327 -3 -198 28 -284
148 -409 136 -143 235 -199 356 -205 93 -4 174 20 230 69 18 16 37 29 42 29 6
0 22 9 36 20 l25 20 77 -47 c144 -86 161 -136 151 -438 -12 -322 -18 -378 -50
-423 -37 -54 -44 -120 -18 -171 20 -39 20 -39 1 -78 -22 -45 -38 -155 -39
-264 l0 -76 -112 -6 c-144 -7 -174 -17 -188 -65 -5 -21 -10 -60 -10 -88 0 -48
1 -51 38 -68 20 -10 66 -21 102 -23 69 -5 81 0 195 71 l47 29 336 3 c460 4
661 14 693 36 49 32 57 105 33 310 -6 52 -5 54 21 66 27 12 27 15 21 69 -13
113 -102 304 -177 379 -16 16 -49 53 -75 82 -40 46 -45 56 -37 75 43 91 48
114 47 202 0 109 -9 128 -98 213 l-66 63 20 22 c36 38 49 134 29 205 -3 10 34
28 115 57 285 104 551 269 606 376 19 35 20 36 68 31 121 -11 197 88 162 212
-13 47 -59 102 -98 117 -13 5 -47 9 -76 9 l-52 0 -44 96 c-73 161 -141 220
-325 282 -114 39 -236 55 -356 48 -52 -3 -156 -9 -231 -12 l-137 -6 -61 33
c-33 17 -60 35 -60 39 0 4 11 12 25 18 28 13 33 37 9 46 -23 9 -77 7 -93 -3
-9 -6 -32 2 -70 24 -91 53 -171 82 -260 94 -92 12 -102 12 -177 1z m183 -39
c38 -6 101 -28 162 -57 100 -47 101 -47 86 -70 -31 -48 -6 -76 46 -50 27 14
32 13 85 -19 83 -50 164 -62 333 -47 75 7 168 12 207 12 127 0 302 -43 419
-103 55 -28 135 -101 135 -124 0 -20 40 -97 56 -106 8 -4 14 -14 14 -21 0 -7
7 -26 15 -43 21 -43 31 -223 16 -296 -10 -47 -21 -65 -54 -98 -102 -98 -323
-220 -557 -309 l-134 -52 -49 16 c-61 20 -84 20 -121 1 -19 -10 -44 -13 -80
-10 -61 7 -91 -6 -124 -55 -21 -30 -23 -43 -18 -91 3 -33 1 -60 -5 -66 -6 -6
-13 -35 -16 -66 l-6 -55 -86 -7 c-47 -4 -94 -9 -103 -11 -13 -4 -20 5 -27 34
-17 62 -63 114 -155 177 -72 49 -85 62 -80 79 23 70 -3 251 -48 340 -47 94
-207 296 -234 296 -27 0 -13 -32 44 -100 32 -38 80 -108 108 -157 44 -77 52
-100 62 -178 26 -194 -22 -297 -163 -351 -142 -54 -288 4 -454 182 -117 125
-147 210 -138 394 7 139 25 227 71 340 107 262 156 341 304 489 83 83 122 114
174 139 99 47 194 60 315 43z m773 -1406 c37 -19 70 -66 77 -108 4 -28 0 -40
-26 -69 -17 -20 -42 -39 -56 -42 -35 -9 -31 -22 18 -53 71 -44 142 -125 157
-176 28 -102 -3 -229 -72 -289 l-31 -27 -35 24 c-57 39 -130 51 -189 32 -43
-14 -49 -14 -65 0 -29 26 -41 80 -36 162 6 94 23 135 61 139 31 4 40 41 10 43
-10 0 -33 1 -52 2 -58 3 -102 95 -68 142 15 19 15 19 62 -4 37 -18 49 -21 55
-11 13 22 1 36 -50 60 -60 28 -77 63 -56 115 17 40 46 57 89 53 28 -3 35 -10
62 -65 28 -59 46 -75 59 -54 3 5 -2 30 -12 56 -17 47 -17 47 7 66 28 23 52 24
91 4z m-297 -391 c23 -18 23 -20 10 -64 -14 -47 -19 -163 -8 -202 9 -33 27
-71 43 -90 12 -15 12 -21 -6 -45 -11 -15 -26 -50 -34 -78 l-15 -50 -12 30
c-23 59 -76 156 -93 172 -17 15 -18 14 -18 -7 0 -27 59 -183 98 -258 20 -39
27 -68 26 -106 0 -75 -32 -173 -63 -197 -30 -24 -88 -23 -82 1 6 23 3 117 -4
140 -8 25 -45 27 -45 3 0 -10 4 -34 9 -53 17 -76 -23 -104 -73 -51 -24 25 -26
32 -15 48 12 21 5 73 -10 73 -5 0 -12 -11 -15 -25 -8 -32 -21 -32 -42 0 -21
31 -13 87 16 127 24 33 33 99 50 378 6 102 12 196 13 209 2 21 12 27 87 47 95
26 146 25 183 -2z m311 -396 c21 -22 34 -43 30 -48 -5 -5 -48 -16 -96 -26 -63
-12 -85 -20 -81 -30 11 -29 70 -29 181 2 66 18 87 9 114 -53 11 -24 18 -47 16
-49 -3 -2 -40 -14 -84 -26 -66 -19 -80 -27 -82 -45 -3 -20 1 -23 31 -23 20 0
64 9 99 20 l63 20 27 -32 c42 -49 109 -185 130 -263 11 -38 22 -115 24 -170 5
-88 3 -104 -15 -132 -15 -25 -30 -33 -71 -42 -66 -14 -660 -26 -802 -17 -97 7
-108 10 -108 27 0 11 -17 45 -37 76 -35 52 -38 62 -38 127 0 65 22 161 44 195
7 11 21 6 72 -22 35 -19 77 -38 92 -41 30 -7 28 -26 -4 -26 -10 0 -19 -6 -19
-13 0 -11 37 -15 163 -21 89 -4 186 -11 215 -15 28 -4 52 -5 52 -1 0 3 -16 33
-37 66 -97 157 -154 305 -155 399 -1 89 67 196 132 208 59 10 104 -4 144 -45z
m181 -60 c83 -91 141 -176 174 -254 32 -74 53 -171 40 -179 -4 -3 -29 36 -54
87 -26 51 -65 119 -86 151 -22 31 -48 81 -59 110 -12 31 -37 69 -60 92 -42 41
-49 55 -26 55 8 0 40 -28 71 -62z m-429 -358 c15 -36 41 -86 56 -112 l27 -48
-73 0 c-40 0 -94 3 -120 6 l-47 7 30 18 c35 21 56 57 71 125 15 64 20 78 24
73 2 -2 16 -33 32 -69z"/>
<path d="M2969 3633 c-18 -21 -18 -138 0 -180 29 -69 75 -18 75 82 0 92 -38
143 -75 98z"/>
<path d="M1818 3395 c-30 -17 -68 -105 -68 -158 0 -18 -4 -37 -10 -43 -16 -16
-23 -153 -11 -222 17 -102 52 -166 139 -251 105 -103 152 -126 263 -126 75 0
90 3 123 25 22 15 47 45 63 78 23 48 25 61 21 136 -7 106 -29 155 -142 318
-101 146 -158 208 -218 237 -51 24 -121 27 -160 6z"/>
<path d="M1995 1162 c-334 -137 -470 -220 -463 -280 8 -65 102 -89 403 -103
225 -10 451 -7 1765 21 245 5 497 7 560 4 130 -6 247 -22 255 -34 9 -14 -55
-46 -190 -95 -151 -54 -170 -64 -159 -75 5 -5 51 6 104 26 244 89 273 104 268
142 -2 21 -12 29 -48 41 -61 20 -633 21 -1547 2 -1077 -22 -1383 -5 -1383 75
0 46 154 132 464 257 99 41 182 79 184 85 7 21 -19 13 -213 -66z"/>
</g>
</svg>
